# 3ds Max Wavefront OBJ Exporter v0.97b - (c)2007 guruware
# 创建的文件:03.01.2020 20:12:03

mtllib small.mtl

#
# object banana
#

v  0.1241 0.0000 0.0886
v  0.1212 0.0023 0.0843
v  0.1228 0.0030 0.0886
v  0.1231 0.0000 0.0864
v  0.1189 0.0032 0.0844
v  0.0638 0.0074 0.0480
v  0.0632 0.0000 0.0499
v  0.0807 0.0069 0.0500
v  0.0638 -0.0074 0.0480
v  0.0807 -0.0069 0.0500
v  0.1157 0.0000 0.0886
v  0.1162 -0.0013 0.0886
v  0.1167 -0.0026 0.0886
v  0.1162 -0.0011 0.0866
v  0.1225 -0.0015 0.0864
v  0.1201 0.0019 0.0802
v  0.1182 0.0028 0.0807
v  0.1221 0.0000 0.0842
v  0.1199 0.0042 0.0886
v  0.0801 0.0000 0.0518
v  0.0990 0.0000 0.0615
v  0.0996 0.0070 0.0598
v  0.1167 0.0023 0.0846
v  0.1167 0.0026 0.0886
v  0.1157 0.0000 0.0846
v  0.1167 -0.0023 0.0846
v  0.1189 -0.0032 0.0844
v  0.1199 -0.0042 0.0886
v  0.1213 -0.0021 0.0843
v  0.1228 -0.0030 0.0886
v  0.1179 0.0048 0.0763
v  0.1163 0.0019 0.0811
v  0.1156 0.0034 0.0788
v  0.0996 -0.0070 0.0598
v  0.1128 0.0080 0.0694
v  0.1192 0.0090 0.0707
v  0.1149 0.0045 0.0772
v  0.1202 0.0034 0.0738
v  0.1209 0.0000 0.0801
v  0.1118 0.0000 0.0722
v  0.1155 0.0000 0.0813
v  0.1137 0.0056 0.0741
v  0.1163 -0.0019 0.0811
v  0.1182 -0.0028 0.0807
v  0.1201 -0.0019 0.0802
v  0.1146 0.0000 0.0798
v  0.1142 0.0000 0.0782
v  0.1130 0.0000 0.0754
v  0.1186 0.0112 0.0657
v  0.1228 0.0064 0.0654
v  0.1212 0.0000 0.0728
v  0.1128 -0.0080 0.0694
v  0.1156 -0.0034 0.0788
v  0.1179 -0.0048 0.0763
v  0.1202 -0.0034 0.0738
v  0.1149 -0.0045 0.0772
v  0.1159 0.0125 0.0604
v  0.1226 0.0080 0.0588
v  0.1243 0.0000 0.0632
v  0.1137 -0.0056 0.0741
v  0.1206 -0.0087 0.0688
v  0.1232 -0.0055 0.0648
v  0.1186 -0.0112 0.0657
v  0.1159 -0.0125 0.0604
v  0.1180 0.0108 0.0545
v  0.1242 0.0000 0.0559
v  0.1226 -0.0080 0.0588
v  0.0895 0.0000 0.0257
v  0.0872 0.0120 0.0322
v  0.1051 0.0121 0.0416
v  0.1180 -0.0108 0.0545
v  0.1201 0.0000 0.0486
v  0.1071 0.0000 0.0349
v  0.1051 -0.0121 0.0416
v  0.0346 0.0000 0.0551
v  0.0152 0.0035 0.0594
v  0.0160 -0.0003 0.0608
v  0.1020 -0.0135 0.0517
v  0.0333 -0.0075 0.0523
v  0.0497 -0.0097 0.0475
v  0.0491 0.0000 0.0515
v  0.0333 0.0075 0.0523
v  0.0152 -0.0040 0.0594
v  0.0134 0.0050 0.0561
v  0.0302 -0.0105 0.0455
v  0.0836 -0.0134 0.0421
v  0.0511 -0.0137 0.0380
v  0.0665 -0.0142 0.0395
v  0.0497 0.0097 0.0475
v  0.0302 0.0105 0.0455
v  0.0134 -0.0055 0.0561
v  0.0116 -0.0040 0.0529
v  0.0271 -0.0075 0.0387
v  0.0258 0.0000 0.0359
v  0.0109 -0.0003 0.0515
v  0.0271 0.0075 0.0387
v  0.0116 0.0035 0.0529
v  0.0526 -0.0097 0.0284
v  0.0872 -0.0120 0.0322
v  0.0700 -0.0127 0.0289
v  0.0511 0.0137 0.0380
v  0.0532 0.0000 0.0245
v  0.0526 0.0097 0.0284
v  0.0722 0.0000 0.0219
v  0.0665 0.0142 0.0395
v  0.0704 0.0116 0.0274
v  0.0836 0.0134 0.0421
v  0.1020 0.0135 0.0517
v  0.0101 0.0036 0.0575
v  0.0112 0.0025 0.0598
v  0.0091 -0.0025 0.0552
v  0.0091 0.0025 0.0552
v  0.0087 -0.0003 0.0543
v  0.0116 0.0000 0.0608
v  0.0101 -0.0036 0.0575
v  0.0112 -0.0025 0.0598
# 116 vertices

vn 0.6422 -0.0873 0.7616
vn 0.6613 0.6869 -0.3014
vn 0.6346 0.5991 0.4882
vn -0.6346 -0.5991 -0.4882
vn -0.6613 -0.6869 0.3014
vn -0.6422 0.0873 -0.7616
vn -0.9163 -0.0025 0.4005
vn 0.7586 -0.1482 0.6345
vn -0.7586 0.1482 -0.6345
vn 0.9163 0.0025 -0.4005
vn -0.0166 0.9851 -0.1712
vn 0.0166 -0.9851 0.1712
vn -0.0037 0.7106 0.7035
vn 0.0475 0.1285 0.9906
vn -0.2724 0.3388 0.9006
vn 0.2724 -0.3388 -0.9006
vn -0.0475 -0.1285 -0.9906
vn 0.0037 -0.7106 -0.7035
vn 0.0173 -0.5937 0.8045
vn -0.2352 -0.7254 0.6469
vn 0.2352 0.7254 -0.6469
vn -0.0173 0.5937 -0.8045
vn -0.0000 0.0000 1.0000
vn -0.7453 -0.2901 0.6003
vn -0.6712 -0.2503 0.6977
vn 0.6712 0.2503 -0.6977
vn 0.7453 0.2901 -0.6003
vn 0.0000 -0.0000 -1.0000
vn -0.5763 -0.5490 0.6054
vn -0.9305 -0.3656 -0.0197
vn 0.9305 0.3656 0.0197
vn 0.5763 0.5490 -0.6054
vn 0.8612 -0.3488 -0.3698
vn -0.8612 0.3488 0.3698
vn 0.7362 0.6768 -0.0049
vn 0.0574 0.9794 0.1935
vn -0.0574 -0.9794 -0.1935
vn -0.7362 -0.6768 0.0049
vn 0.9366 0.0112 -0.3501
vn -0.9366 -0.0112 0.3501
vn 0.0264 0.8420 0.5388
vn -0.0264 -0.8420 -0.5388
vn -0.2891 0.0001 0.9573
vn 0.2891 -0.0001 -0.9573
vn -0.5502 0.0084 0.8350
vn -0.4811 0.4123 0.7737
vn 0.4811 -0.4123 -0.7737
vn 0.5502 -0.0084 -0.8350
vn -0.7065 0.7069 -0.0334
vn -0.5739 0.5443 0.6118
vn 0.5739 -0.5443 -0.6118
vn 0.7065 -0.7069 0.0334
vn -0.9997 -0.0031 0.0256
vn -0.7442 0.2776 0.6075
vn 0.7442 -0.2776 -0.6075
vn 0.9997 0.0031 -0.0256
vn 0.0000 -1.0000 0.0000
vn -0.0000 1.0000 -0.0000
vn -0.7050 -0.7089 -0.0206
vn 0.7050 0.7089 0.0206
vn -0.0069 -0.9871 -0.1601
vn 0.0238 -0.8452 0.5339
vn -0.0238 0.8452 -0.5339
vn 0.0069 0.9871 0.1601
vn 0.6906 -0.6576 -0.3011
vn 0.6317 -0.6034 0.4867
vn -0.6317 0.6034 -0.4867
vn -0.6906 0.6576 0.3011
vn 0.3840 0.7870 0.4829
vn -0.3840 -0.7870 -0.4829
vn -0.5558 0.8128 0.1744
vn 0.5558 -0.8128 -0.1744
vn -0.6537 0.5441 0.5259
vn 0.6537 -0.5441 -0.5259
vn -0.4080 -0.6744 0.6154
vn 0.4080 0.6744 -0.6154
vn -0.4099 0.7886 0.4584
vn 0.4099 -0.7886 -0.4584
vn 0.3813 0.7948 0.4721
vn -0.4968 0.6422 0.5838
vn 0.4968 -0.6422 -0.5838
vn -0.3813 -0.7948 -0.4721
vn 0.8802 0.3705 0.2966
vn -0.8802 -0.3705 -0.2966
vn 0.9895 -0.1296 -0.0639
vn -0.9895 0.1296 0.0639
vn -0.8363 -0.0022 0.5483
vn 0.8363 0.0022 -0.5483
vn -0.9245 0.1612 0.3455
vn 0.9245 -0.1612 -0.3455
vn -0.6836 0.5896 0.4300
vn 0.6836 -0.5896 -0.4300
vn -0.5688 -0.8055 0.1661
vn 0.5688 0.8055 -0.1661
vn 0.0423 -0.9904 0.1319
vn -0.0423 0.9904 -0.1319
vn 0.5822 -0.8058 -0.1080
vn -0.5822 0.8058 0.1080
vn 0.8610 -0.2393 -0.4487
vn -0.8610 0.2393 0.4487
vn -0.9399 0.0327 0.3398
vn 0.9399 -0.0327 -0.3398
vn -0.9260 -0.0041 0.3775
vn 0.9260 0.0041 -0.3775
vn 0.2884 0.9230 0.2547
vn -0.2884 -0.9230 -0.2547
vn 0.9018 0.3843 0.1979
vn -0.9018 -0.3843 -0.1979
vn 0.9712 -0.2052 0.1209
vn -0.9712 0.2052 -0.1209
vn -0.3323 -0.8043 0.4927
vn 0.3323 0.8043 -0.4927
vn -0.8060 -0.3684 0.4633
vn 0.8060 0.3684 -0.4633
vn 0.3255 -0.8411 0.4320
vn -0.3255 0.8411 -0.4320
vn 0.9013 -0.3761 0.2148
vn -0.9013 0.3761 -0.2148
vn -0.3378 -0.7203 0.6058
vn 0.3378 0.7203 -0.6058
vn -0.4584 -0.6798 0.5725
vn 0.4584 0.6798 -0.5725
vn 0.2339 0.9663 0.1076
vn -0.2339 -0.9663 -0.1076
vn 0.8292 0.5261 -0.1891
vn -0.8292 -0.5261 0.1891
vn 0.9922 0.0060 0.1244
vn -0.9922 -0.0060 -0.1244
vn -0.6932 -0.5871 0.4181
vn 0.6932 0.5871 -0.4181
vn 0.6501 -0.6281 0.4276
vn -0.6501 0.6281 -0.4276
vn 0.9362 -0.2958 0.1899
vn -0.9362 0.2958 -0.1899
vn 0.2406 -0.9315 0.2729
vn -0.2406 0.9315 -0.2729
vn 0.0051 -0.9558 0.2938
vn -0.0051 0.9558 -0.2938
vn 0.3407 0.9130 -0.2245
vn -0.3407 -0.9130 0.2245
vn 0.9506 0.0165 -0.3100
vn -0.9506 -0.0165 0.3100
vn 0.8309 -0.5298 -0.1699
vn -0.8309 0.5298 0.1699
vn 0.3156 -0.1186 -0.9415
vn 0.1461 0.8562 -0.4956
vn 0.2435 0.9326 -0.2665
vn -0.2435 -0.9326 0.2665
vn -0.1461 -0.8562 0.4956
vn -0.3156 0.1186 0.9415
vn 0.4893 -0.8162 -0.3074
vn -0.4893 0.8162 0.3074
vn 0.7880 0.0040 -0.6156
vn -0.7880 -0.0040 0.6156
vn 0.4841 -0.3286 -0.8110
vn -0.4841 0.3286 0.8110
vn 0.2233 -0.9320 -0.2857
vn -0.2233 0.9320 0.2857
vn 0.2628 0.0033 0.9649
vn 0.0396 0.6575 0.7524
vn 0.1603 -0.0062 0.9871
vn -0.1064 -0.9725 0.2071
vn 0.1251 -0.7056 0.6975
vn 0.0517 -0.7199 0.6921
vn 0.1678 0.0110 0.9858
vn 0.1174 0.7024 0.7021
vn 0.0188 -0.6601 0.7509
vn -0.2775 0.9458 0.1687
vn -0.1787 -0.9828 0.0472
vn -0.0481 -0.9746 0.2186
vn -0.1436 -0.9887 -0.0429
vn 0.0013 -0.9721 0.2347
vn 0.1027 0.7232 0.6830
vn -0.1964 0.9786 0.0608
vn -0.3033 -0.9355 0.1811
vn -0.6220 -0.6717 -0.4023
vn -0.4510 -0.6796 -0.5785
vn -0.5628 -0.0022 -0.8266
vn -0.7545 -0.0032 -0.6563
vn -0.4663 0.6763 -0.5703
vn -0.6118 0.6676 -0.4242
vn -0.2365 -0.6544 -0.7182
vn 0.2085 -0.8107 -0.5471
vn 0.0361 -0.8146 -0.5789
vn -0.0704 0.9972 -0.0243
vn -0.2484 0.0040 -0.9687
vn -0.1996 0.6773 -0.7081
vn 0.0708 -0.0134 -0.9974
vn -0.0428 0.9803 0.1928
vn 0.0242 0.7690 -0.6388
vn -0.0569 0.9765 0.2076
vn -0.0814 0.9708 0.2257
vn -0.0000 -0.0000 -1.0000
vn -0.6977 0.6406 0.3207
vn -0.5146 0.4565 0.7258
vn -0.9093 -0.4136 -0.0455
vn -0.8918 0.4441 -0.0869
vn -0.9755 -0.0132 -0.2197
vn -0.4519 0.0125 0.8920
vn -0.7346 -0.5875 0.3395
vn -0.5452 -0.4180 0.7267
vn 0.0000 0.0000 1.0000
# 202 vertex normals

vt 0.0000 0.0000 0.0000
# 1 texture coords

o banana
g banana
usemtl m0
s 1
f 1/1/1 2/1/2 3/1/3 
f 3/1/4 2/1/5 1/1/6 
f 1/1/1 4/1/7 1/1/8 
f 1/1/9 4/1/10 1/1/6 
f 1/1/8 2/1/2 1/1/1 
f 1/1/6 2/1/5 1/1/9 
f 2/1/2 5/1/11 3/1/3 
f 3/1/4 5/1/12 2/1/5 
f 6/1/13 7/1/14 8/1/15 
f 8/1/16 7/1/17 6/1/18 
f 7/1/14 9/1/19 10/1/20 
f 10/1/21 9/1/22 7/1/17 
f 11/1/23 11/1/24 12/1/25 
f 12/1/26 11/1/27 11/1/28 
f 13/1/29 12/1/25 14/1/30 
f 14/1/31 12/1/26 13/1/32 
f 1/1/1 15/1/33 4/1/10 
f 4/1/7 15/1/34 1/1/6 
f 16/1/35 17/1/36 2/1/2 
f 2/1/5 17/1/37 16/1/38 
f 18/1/39 2/1/2 4/1/10 
f 1/1/8 4/1/10 2/1/2 
f 2/1/5 4/1/7 1/1/9 
f 4/1/7 2/1/5 18/1/40 
f 3/1/3 5/1/11 19/1/41 
f 19/1/42 5/1/12 3/1/4 
f 2/1/2 17/1/36 5/1/11 
f 5/1/12 17/1/37 2/1/5 
f 7/1/14 20/1/43 8/1/15 
f 8/1/16 20/1/44 7/1/17 
f 20/1/43 7/1/14 10/1/20 
f 10/1/21 7/1/17 20/1/44 
f 8/1/15 21/1/45 22/1/46 
f 22/1/47 21/1/48 8/1/16 
f 19/1/41 23/1/49 24/1/50 
f 24/1/51 23/1/52 19/1/42 
f 25/1/53 11/1/54 24/1/50 
f 24/1/51 11/1/55 25/1/56 
f 11/1/57 25/1/57 11/1/57 
f 11/1/58 25/1/58 11/1/58 
f 14/1/30 12/1/25 11/1/24 
f 11/1/27 12/1/26 14/1/31 
f 26/1/59 13/1/29 14/1/30 
f 14/1/31 13/1/32 26/1/60 
f 13/1/29 27/1/61 28/1/62 
f 28/1/63 27/1/64 13/1/32 
f 29/1/65 30/1/66 28/1/62 
f 28/1/63 30/1/67 29/1/68 
f 15/1/33 18/1/39 4/1/10 
f 4/1/7 18/1/40 15/1/34 
f 30/1/66 15/1/33 1/1/1 
f 1/1/6 15/1/34 30/1/67 
f 16/1/35 31/1/69 17/1/36 
f 17/1/37 31/1/70 16/1/38 
f 18/1/39 16/1/35 2/1/2 
f 2/1/5 16/1/38 18/1/40 
f 5/1/11 23/1/49 19/1/41 
f 19/1/42 23/1/52 5/1/12 
f 17/1/36 32/1/71 5/1/11 
f 5/1/12 32/1/72 17/1/37 
f 31/1/69 33/1/73 17/1/36 
f 17/1/37 33/1/74 31/1/70 
f 8/1/15 20/1/43 21/1/45 
f 21/1/48 20/1/44 8/1/16 
f 20/1/43 10/1/20 34/1/75 
f 34/1/76 10/1/21 20/1/44 
f 22/1/46 21/1/45 35/1/77 
f 35/1/78 21/1/48 22/1/47 
f 23/1/49 25/1/53 24/1/50 
f 24/1/51 25/1/56 23/1/52 
f 26/1/59 14/1/30 25/1/53 
f 11/1/24 25/1/53 14/1/30 
f 14/1/31 25/1/56 11/1/27 
f 25/1/56 14/1/31 26/1/60 
f 31/1/69 36/1/79 37/1/80 
f 37/1/81 36/1/82 31/1/70 
f 26/1/59 27/1/61 13/1/29 
f 13/1/32 27/1/64 26/1/60 
f 27/1/61 29/1/65 28/1/62 
f 28/1/63 29/1/68 27/1/64 
f 30/1/66 29/1/65 15/1/33 
f 18/1/39 15/1/33 29/1/65 
f 29/1/68 15/1/34 18/1/40 
f 15/1/34 29/1/68 30/1/67 
f 38/1/83 31/1/69 16/1/35 
f 16/1/38 31/1/70 38/1/84 
f 18/1/39 39/1/85 16/1/35 
f 16/1/38 39/1/86 18/1/40 
f 5/1/11 32/1/71 23/1/49 
f 23/1/52 32/1/72 5/1/12 
f 17/1/36 33/1/73 32/1/71 
f 32/1/72 33/1/74 17/1/37 
f 31/1/69 37/1/80 33/1/73 
f 33/1/74 37/1/81 31/1/70 
f 21/1/45 20/1/43 34/1/75 
f 34/1/76 20/1/44 21/1/48 
f 21/1/45 40/1/87 35/1/77 
f 35/1/78 40/1/88 21/1/48 
f 41/1/89 25/1/53 23/1/49 
f 23/1/52 25/1/56 41/1/90 
f 36/1/79 42/1/91 37/1/80 
f 37/1/81 42/1/92 36/1/82 
f 43/1/93 26/1/59 25/1/53 
f 25/1/56 26/1/60 43/1/94 
f 31/1/69 38/1/83 36/1/79 
f 36/1/82 38/1/84 31/1/70 
f 44/1/95 27/1/61 26/1/59 
f 26/1/60 27/1/64 44/1/96 
f 45/1/97 29/1/65 27/1/61 
f 27/1/64 29/1/68 45/1/98 
f 18/1/39 29/1/65 39/1/85 
f 39/1/86 29/1/68 18/1/40 
f 16/1/35 39/1/85 38/1/83 
f 38/1/84 39/1/86 16/1/38 
f 32/1/71 41/1/89 23/1/49 
f 23/1/52 41/1/90 32/1/72 
f 32/1/72 46/1/99 33/1/74 
f 33/1/73 46/1/100 32/1/71 
f 47/1/101 33/1/73 37/1/80 
f 37/1/81 33/1/74 47/1/102 
f 48/1/103 37/1/80 42/1/91 
f 42/1/92 37/1/81 48/1/104 
f 21/1/45 34/1/75 40/1/87 
f 40/1/88 34/1/76 21/1/48 
f 40/1/87 42/1/91 35/1/77 
f 35/1/78 42/1/92 40/1/88 
f 41/1/89 43/1/93 25/1/53 
f 25/1/56 43/1/94 41/1/90 
f 36/1/79 49/1/105 42/1/91 
f 42/1/92 49/1/106 36/1/82 
f 43/1/93 44/1/95 26/1/59 
f 26/1/60 44/1/96 43/1/94 
f 38/1/83 50/1/107 36/1/79 
f 36/1/82 50/1/108 38/1/84 
f 44/1/95 45/1/97 27/1/61 
f 27/1/64 45/1/98 44/1/96 
f 29/1/65 45/1/97 39/1/85 
f 39/1/86 45/1/98 29/1/68 
f 39/1/85 51/1/109 38/1/83 
f 38/1/84 51/1/110 39/1/86 
f 41/1/90 46/1/99 32/1/72 
f 32/1/71 46/1/100 41/1/89 
f 47/1/101 46/1/100 33/1/73 
f 33/1/74 46/1/99 47/1/102 
f 48/1/103 47/1/101 37/1/80 
f 37/1/81 47/1/102 48/1/104 
f 40/1/87 48/1/103 42/1/91 
f 42/1/92 48/1/104 40/1/88 
f 40/1/87 34/1/75 52/1/111 
f 52/1/112 34/1/76 40/1/88 
f 49/1/105 35/1/77 42/1/91 
f 42/1/92 35/1/78 49/1/106 
f 53/1/113 43/1/113 41/1/113 
f 41/1/114 43/1/114 53/1/114 
f 53/1/113 43/1/113 41/1/113 
f 41/1/114 43/1/114 53/1/114 
f 36/1/79 50/1/107 49/1/105 
f 49/1/106 50/1/108 36/1/82 
f 54/1/115 44/1/95 43/1/93 
f 43/1/94 44/1/96 54/1/116 
f 38/1/83 51/1/109 50/1/107 
f 50/1/108 51/1/110 38/1/84 
f 55/1/117 45/1/97 44/1/95 
f 44/1/96 45/1/98 55/1/118 
f 51/1/110 45/1/98 39/1/86 
f 39/1/85 45/1/97 51/1/109 
f 46/1/100 53/1/119 41/1/89 
f 41/1/90 53/1/120 46/1/99 
f 47/1/101 56/1/121 46/1/100 
f 46/1/99 56/1/122 47/1/102 
f 48/1/103 56/1/121 47/1/101 
f 47/1/102 56/1/122 48/1/104 
f 52/1/111 48/1/103 40/1/87 
f 40/1/88 48/1/104 52/1/112 
f 49/1/105 57/1/123 35/1/77 
f 35/1/78 57/1/124 49/1/106 
f 53/1/119 54/1/115 43/1/93 
f 43/1/94 54/1/116 53/1/120 
f 50/1/107 58/1/125 49/1/105 
f 49/1/106 58/1/126 50/1/108 
f 54/1/115 55/1/117 44/1/95 
f 44/1/96 55/1/118 54/1/116 
f 51/1/109 59/1/127 50/1/107 
f 50/1/108 59/1/128 51/1/110 
f 55/1/118 45/1/98 51/1/110 
f 51/1/109 45/1/97 55/1/117 
f 56/1/121 53/1/119 46/1/100 
f 46/1/99 53/1/120 56/1/122 
f 60/1/129 56/1/121 48/1/103 
f 48/1/104 56/1/122 60/1/130 
f 52/1/111 60/1/129 48/1/103 
f 48/1/104 60/1/130 52/1/112 
f 58/1/125 57/1/123 49/1/105 
f 49/1/106 57/1/124 58/1/126 
f 61/1/131 54/1/115 53/1/119 
f 53/1/120 54/1/116 61/1/132 
f 50/1/107 59/1/127 58/1/125 
f 58/1/126 59/1/128 50/1/108 
f 54/1/115 62/1/133 55/1/117 
f 55/1/118 62/1/134 54/1/116 
f 51/1/109 55/1/117 59/1/127 
f 59/1/128 55/1/118 51/1/110 
f 56/1/121 61/1/131 53/1/119 
f 53/1/120 61/1/132 56/1/122 
f 60/1/129 63/1/135 56/1/121 
f 56/1/122 63/1/136 60/1/130 
f 52/1/111 64/1/137 60/1/129 
f 60/1/130 64/1/138 52/1/112 
f 58/1/125 65/1/139 57/1/123 
f 57/1/124 65/1/140 58/1/126 
f 61/1/131 62/1/133 54/1/115 
f 54/1/116 62/1/134 61/1/132 
f 59/1/127 66/1/141 58/1/125 
f 58/1/126 66/1/142 59/1/128 
f 55/1/117 62/1/133 59/1/127 
f 59/1/128 62/1/134 55/1/118 
f 63/1/135 61/1/131 56/1/121 
f 56/1/122 61/1/132 63/1/136 
f 64/1/137 63/1/135 60/1/129 
f 60/1/130 63/1/136 64/1/138 
f 58/1/125 66/1/141 65/1/139 
f 65/1/140 66/1/142 58/1/126 
f 61/1/131 67/1/143 62/1/133 
f 62/1/134 67/1/144 61/1/132 
f 59/1/127 62/1/133 66/1/141 
f 66/1/142 62/1/134 59/1/128 
f 68/1/145 69/1/146 70/1/147 
f 70/1/148 69/1/149 68/1/150 
f 61/1/131 63/1/135 67/1/143 
f 67/1/144 63/1/136 61/1/132 
f 64/1/137 71/1/151 63/1/135 
f 63/1/136 71/1/152 64/1/138 
f 66/1/141 72/1/153 65/1/139 
f 65/1/140 72/1/154 66/1/142 
f 62/1/133 67/1/143 66/1/141 
f 66/1/142 67/1/144 62/1/134 
f 68/1/145 70/1/147 73/1/155 
f 73/1/156 70/1/148 68/1/150 
f 65/1/139 72/1/153 70/1/147 
f 70/1/148 72/1/154 65/1/140 
f 71/1/151 67/1/143 63/1/135 
f 63/1/136 67/1/144 71/1/152 
f 67/1/143 72/1/153 66/1/141 
f 66/1/142 72/1/154 67/1/144 
f 72/1/153 73/1/155 70/1/147 
f 70/1/148 73/1/156 72/1/154 
f 67/1/143 71/1/151 72/1/153 
f 72/1/154 71/1/152 67/1/144 
f 72/1/153 71/1/151 73/1/155 
f 73/1/156 71/1/152 72/1/154 
f 71/1/151 74/1/157 73/1/155 
f 73/1/156 74/1/158 71/1/152 
f 75/1/159 76/1/160 77/1/161 
f 52/1/111 34/1/75 78/1/162 
f 75/1/159 77/1/161 79/1/163 
f 80/1/164 81/1/165 75/1/159 
f 75/1/159 82/1/166 76/1/160 
f 79/1/163 77/1/161 83/1/167 
f 34/1/75 10/1/20 78/1/162 
f 52/1/111 78/1/162 64/1/137 
f 64/1/137 74/1/157 71/1/151 
f 80/1/164 75/1/159 79/1/163 
f 9/1/19 81/1/165 80/1/164 
f 81/1/165 82/1/166 75/1/159 
f 76/1/160 82/1/166 84/1/168 
f 83/1/167 85/1/169 79/1/163 
f 78/1/162 10/1/20 86/1/170 
f 64/1/137 78/1/162 74/1/157 
f 79/1/163 87/1/171 80/1/164 
f 9/1/19 80/1/164 88/1/172 
f 10/1/20 9/1/19 86/1/170 
f 9/1/19 7/1/14 81/1/165 
f 89/1/173 82/1/166 81/1/165 
f 84/1/168 82/1/166 90/1/174 
f 83/1/167 91/1/175 85/1/169 
f 79/1/163 85/1/169 87/1/171 
f 78/1/162 86/1/170 74/1/157 
f 80/1/164 87/1/171 88/1/172 
f 9/1/19 88/1/172 86/1/170 
f 91/1/175 92/1/176 93/1/177 
f 94/1/178 92/1/176 95/1/179 
f 96/1/180 95/1/179 97/1/181 
f 84/1/168 90/1/174 97/1/181 
f 7/1/14 89/1/173 81/1/165 
f 82/1/166 89/1/173 90/1/174 
f 91/1/175 93/1/177 85/1/169 
f 85/1/169 98/1/182 87/1/171 
f 86/1/170 99/1/183 74/1/157 
f 88/1/172 87/1/171 100/1/184 
f 86/1/170 88/1/172 99/1/183 
f 94/1/178 93/1/177 92/1/176 
f 96/1/180 94/1/178 95/1/179 
f 97/1/181 90/1/174 96/1/180 
f 6/1/13 89/1/173 7/1/14 
f 89/1/173 101/1/185 90/1/174 
f 85/1/169 93/1/177 98/1/182 
f 87/1/171 98/1/182 100/1/184 
f 73/1/155 74/1/157 99/1/183 
f 88/1/172 100/1/184 99/1/183 
f 102/1/186 93/1/177 94/1/178 
f 103/1/187 94/1/178 96/1/180 
f 90/1/174 101/1/185 96/1/180 
f 6/1/13 101/1/185 89/1/173 
f 102/1/186 98/1/182 93/1/177 
f 104/1/188 100/1/184 98/1/182 
f 73/1/155 99/1/183 68/1/145 
f 99/1/183 100/1/184 104/1/188 
f 102/1/186 94/1/178 103/1/187 
f 96/1/180 101/1/185 103/1/187 
f 6/1/13 105/1/189 101/1/185 
f 104/1/188 98/1/182 102/1/186 
f 68/1/145 99/1/183 104/1/188 
f 106/1/190 102/1/186 103/1/187 
f 105/1/189 103/1/187 101/1/185 
f 8/1/15 105/1/189 6/1/13 
f 104/1/188 102/1/186 106/1/190 
f 68/1/145 104/1/188 69/1/146 
f 105/1/189 106/1/190 103/1/187 
f 8/1/15 107/1/191 105/1/189 
f 69/1/146 104/1/188 106/1/190 
f 107/1/191 106/1/190 105/1/189 
f 22/1/46 107/1/191 8/1/15 
f 107/1/191 69/1/146 106/1/190 
f 22/1/46 108/1/192 107/1/191 
f 35/1/77 57/1/123 22/1/46 
f 108/1/192 69/1/146 107/1/191 
f 57/1/123 108/1/192 22/1/46 
f 108/1/192 70/1/147 69/1/146 
f 57/1/123 65/1/139 108/1/192 
f 65/1/139 70/1/147 108/1/192 
f 30/1/67 3/1/4 1/1/6 
f 28/1/63 3/1/4 30/1/67 
f 28/1/63 19/1/42 3/1/4 
f 13/1/32 19/1/42 28/1/63 
f 13/1/32 24/1/51 19/1/42 
f 12/1/26 24/1/51 13/1/32 
f 11/1/193 24/1/51 12/1/26 
f 24/1/51 11/1/193 11/1/55 
usemtl m1
f 76/1/160 84/1/168 109/1/194 
f 77/1/161 76/1/160 110/1/195 
f 95/1/179 92/1/176 111/1/196 
f 84/1/168 97/1/181 112/1/197 
f 97/1/181 95/1/179 113/1/198 
f 77/1/161 114/1/199 83/1/167 
f 109/1/194 84/1/168 112/1/197 
f 110/1/195 76/1/160 109/1/194 
f 77/1/161 110/1/195 114/1/199 
f 115/1/200 111/1/196 92/1/176 
f 95/1/179 111/1/196 113/1/198 
f 97/1/181 113/1/198 112/1/197 
f 83/1/167 114/1/199 116/1/201 
f 115/1/200 92/1/176 91/1/175 
f 112/1/197 110/1/195 109/1/194 
f 112/1/197 114/1/199 110/1/195 
f 113/1/198 114/1/199 112/1/197 
f 113/1/198 116/1/201 114/1/199 
f 111/1/196 116/1/201 113/1/198 
f 116/1/201 111/1/196 115/1/200 
f 116/1/201 91/1/175 83/1/167 
f 116/1/201 115/1/200 91/1/175 
f 11/1/54 11/1/202 24/1/50 
f 12/1/25 24/1/50 11/1/202 
f 13/1/29 24/1/50 12/1/25 
f 19/1/41 24/1/50 13/1/29 
f 28/1/62 19/1/41 13/1/29 
f 3/1/3 19/1/41 28/1/62 
f 30/1/66 3/1/3 28/1/62 
f 1/1/1 3/1/3 30/1/66 
# 0 polygons - 368 triangles

