# 3ds Max Wavefront OBJ Exporter v0.97b - (c)2007 guruware
# 创建的文件:31.03.2020 21:06:39

mtllib banana2.mtl

#
# object Banana
#

v  -0.069 2.009 -0.024
v  -0.065 2.004 -0.026
v  -0.064 2.005 -0.020
v  -0.068 2.009 -0.019
v  -0.060 2.016 -0.028
v  -0.056 2.011 -0.029
v  -0.064 2.005 -0.031
v  -0.068 2.010 -0.030
v  -0.060 2.015 -0.020
v  -0.057 2.011 -0.021
v  -0.062 2.001 -0.020
v  -0.062 2.000 -0.026
v  -0.062 1.992 -0.026
v  -0.062 1.995 -0.015
v  -0.060 2.001 -0.032
v  -0.053 2.008 -0.029
v  -0.045 2.009 -0.031
v  -0.058 1.995 -0.037
v  -0.055 2.008 -0.020
v  -0.050 2.009 -0.015
v  -0.014 1.962 -0.009
v  -0.003 1.962 -0.002
v  -0.012 1.966 0.011
v  -0.021 1.967 0.006
v  -0.003 1.995 -0.017
v  0.004 1.994 -0.011
v  0.006 1.966 -0.016
v  -0.005 1.967 -0.023
v  -0.016 1.995 0.004
v  -0.009 1.994 0.008
v  0.041 1.986 0.042
v  0.044 1.994 0.045
v  0.036 1.996 0.048
v  0.031 1.989 0.047
v  0.040 2.005 0.026
v  0.042 2.006 0.033
v  0.049 1.996 0.040
v  0.049 1.989 0.035
v  0.027 2.005 0.037
v  0.033 2.006 0.040
v  0.040 2.003 0.050
v  0.046 2.001 0.049
v  0.047 2.006 0.052
v  0.042 2.006 0.053
v  0.049 2.003 0.045
v  0.045 2.009 0.040
v  0.046 2.015 0.046
v  0.051 2.008 0.050
v  0.038 2.009 0.044
v  0.039 2.013 0.048
v  -0.071 2.018 -0.022
v  -0.074 2.016 -0.028
v  -0.074 2.012 -0.022
v  0.046 2.011 0.050
v  0.024 1.968 0.021
v  0.032 1.973 0.029
v  0.019 1.977 0.037
v  0.013 1.972 0.030
v  0.007 1.962 0.005
v  0.016 1.965 0.013
v  0.005 1.969 0.024
v  -0.003 1.967 0.017
v  -0.040 1.973 -0.002
v  -0.048 1.977 -0.004
v  -0.045 1.972 -0.022
v  -0.036 1.968 -0.019
v  -0.031 1.969 0.002
v  -0.025 1.964 -0.014
v  0.025 1.997 0.007
v  0.032 1.999 0.013
v  0.042 1.977 0.019
v  0.034 1.972 0.010
v  0.012 1.994 -0.006
v  0.019 1.995 0.000
v  0.026 1.969 0.001
v  0.016 1.967 -0.008
v  -0.028 1.973 -0.034
v  -0.037 1.977 -0.038
v  -0.024 2.003 -0.028
v  -0.018 2.000 -0.025
v  -0.016 1.969 -0.029
v  -0.011 1.997 -0.021
v  0.010 1.997 0.023
v  0.016 2.000 0.028
v  -0.002 1.994 0.013
v  0.004 1.995 0.017
v  -0.035 2.003 -0.004
v  -0.029 2.000 -0.002
v  -0.023 1.997 0.001
v  -0.061 1.986 -0.026
v  -0.058 1.981 -0.025
v  -0.059 1.985 -0.008
v  -0.061 1.990 -0.011
v  -0.039 2.010 -0.032
v  -0.034 2.009 -0.032
v  -0.051 1.985 -0.041
v  -0.055 1.989 -0.040
v  -0.046 2.010 -0.011
v  -0.042 2.009 -0.008
v  -0.061 2.018 -0.018
v  -0.063 2.021 -0.027
v  -0.070 2.011 -0.017
v  0.028 1.986 0.046
v  0.040 1.982 0.040
v  0.049 1.985 0.032
v  0.039 2.004 0.022
v  0.024 2.004 0.035
v  0.038 1.979 0.038
v  0.026 1.983 0.044
v  -0.056 1.981 -0.006
v  -0.054 1.977 -0.024
v  0.037 2.003 0.019
v  0.047 1.982 0.027
v  -0.047 1.981 -0.041
v  -0.030 2.007 -0.031
v  0.021 2.003 0.033
v  -0.040 2.007 -0.006
# 117 vertices

vn -0.675 -0.734 -0.078
vn -0.801 -0.592 -0.086
vn -0.415 -0.428 0.803
vn -0.264 -0.718 0.644
vn 0.587 0.529 -0.613
vn 0.551 0.578 -0.602
vn -0.450 -0.176 -0.876
vn -0.474 -0.228 -0.850
vn 0.789 0.147 0.596
vn 0.602 0.386 0.699
vn -0.854 0.097 0.511
vn -0.952 -0.243 -0.187
vn -0.968 -0.143 -0.207
vn -0.897 0.199 0.396
vn -0.586 0.133 -0.800
vn 0.070 0.831 -0.552
vn -0.147 0.863 -0.484
vn -0.615 0.199 -0.763
vn -0.151 0.846 0.510
vn -0.412 0.863 0.293
vn -0.096 -0.993 -0.061
vn 0.005 -1.000 -0.005
vn -0.437 -0.560 0.704
vn -0.448 -0.559 0.698
vn 0.472 0.729 -0.496
vn 0.432 0.742 -0.513
vn 0.483 -0.542 -0.688
vn 0.381 -0.541 -0.749
vn -0.186 0.736 0.651
vn -0.298 0.751 0.590
vn 0.494 -0.480 0.725
vn 0.493 -0.429 0.757
vn -0.237 -0.024 0.971
vn -0.213 -0.083 0.974
vn 0.502 0.804 -0.321
vn 0.473 0.804 -0.360
vn 0.993 -0.068 0.101
vn 0.986 -0.120 0.118
vn -0.379 0.838 0.393
vn -0.448 0.845 0.292
vn -0.445 -0.263 0.856
vn 0.430 -0.580 0.692
vn 0.361 -0.242 0.901
vn -0.390 -0.109 0.914
vn 0.984 -0.178 0.027
vn 0.393 0.701 -0.595
vn 0.333 0.916 -0.222
vn 0.916 0.148 0.373
vn -0.754 0.657 -0.017
vn -0.668 0.710 0.220
vn -0.516 0.742 0.428
vn -0.788 0.301 -0.537
vn -0.937 -0.298 0.183
vn 0.129 0.638 0.759
vn 0.237 -0.941 0.242
vn 0.286 -0.896 0.339
vn -0.435 -0.469 0.769
vn -0.435 -0.510 0.742
vn 0.096 -0.993 0.066
vn 0.174 -0.973 0.150
vn -0.430 -0.535 0.727
vn -0.431 -0.552 0.714
vn -0.469 -0.527 0.709
vn -0.475 -0.506 0.720
vn -0.396 -0.909 -0.127
vn -0.305 -0.945 -0.120
vn -0.461 -0.547 0.699
vn -0.203 -0.974 -0.101
vn 0.336 0.722 -0.604
vn 0.315 0.697 -0.644
vn 0.813 -0.471 -0.343
vn 0.736 -0.509 -0.447
vn 0.395 0.745 -0.537
vn 0.363 0.739 -0.568
vn 0.662 -0.526 -0.534
vn 0.577 -0.537 -0.615
vn 0.175 -0.524 -0.834
vn 0.086 -0.509 -0.856
vn 0.604 0.639 -0.477
vn 0.562 0.674 -0.479
vn 0.275 -0.535 -0.799
vn 0.515 0.706 -0.485
vn -0.589 0.732 0.341
vn -0.665 0.706 0.245
vn -0.404 0.755 0.516
vn -0.502 0.749 0.432
vn 0.143 0.635 0.759
vn 0.043 0.676 0.736
vn -0.072 0.710 0.700
vn -0.897 -0.399 -0.190
vn -0.775 -0.606 -0.178
vn -0.755 -0.190 0.627
vn -0.844 0.003 0.536
vn 0.062 0.836 -0.545
vn 0.302 0.779 -0.549
vn -0.331 -0.237 -0.913
vn -0.505 -0.034 -0.863
vn -0.256 0.864 0.434
vn -0.080 0.801 0.594
vn 0.474 0.454 0.754
vn 0.242 0.894 -0.377
vn -0.380 -0.288 0.879
vn -0.334 -0.232 0.913
vn 0.443 -0.629 0.639
vn 0.961 -0.276 -0.015
vn 0.446 0.787 -0.426
vn -0.484 0.810 0.331
vn 0.362 -0.789 0.497
vn -0.407 -0.378 0.831
vn -0.603 -0.396 0.692
vn -0.584 -0.798 -0.149
vn 0.377 0.713 -0.592
vn 0.888 -0.416 -0.197
vn -0.117 -0.429 -0.896
vn 0.518 0.676 -0.524
vn -0.632 0.734 0.248
vn 0.086 0.687 0.722
# 117 vertex normals

vt 0.148 0.189 0.000
vt 0.175 0.218 0.000
vt 0.136 0.239 0.000
vt 0.122 0.209 0.000
vt 0.228 0.121 0.000
vt 0.256 0.143 0.000
vt 0.212 0.192 0.000
vt 0.180 0.165 0.000
vt 0.255 0.078 0.000
vt 0.273 0.095 0.000
vt 0.082 0.261 0.000
vt 0.067 0.241 0.000
vt 0.146 0.273 0.000
vt 0.191 0.245 0.000
vt 0.208 0.283 0.000
vt 0.153 0.329 0.000
vt 0.239 0.213 0.000
vt 0.288 0.150 0.000
vt 0.351 0.148 0.000
vt 0.271 0.243 0.000
vt 0.294 0.091 0.000
vt 0.340 0.051 0.000
vt 0.080 0.283 0.000
vt 0.040 0.332 0.000
vt 0.426 0.502 0.000
vt 0.475 0.541 0.000
vt 0.412 0.621 0.000
vt 0.360 0.582 0.000
vt 0.613 0.297 0.000
vt 0.656 0.339 0.000
vt 0.541 0.462 0.000
vt 0.493 0.421 0.000
vt 0.714 0.191 0.000
vt 0.758 0.239 0.000
vt 0.315 0.757 0.000
vt 0.254 0.716 0.000
vt 0.766 0.751 0.000
vt 0.811 0.769 0.000
vt 0.785 0.818 0.000
vt 0.729 0.809 0.000
vt 0.879 0.601 0.000
vt 0.898 0.652 0.000
vt 0.838 0.719 0.000
vt 0.800 0.692 0.000
vt 0.975 0.570 0.000
vt 0.964 0.630 0.000
vt 0.781 0.900 0.000
vt 0.720 0.924 0.000
vt 0.838 0.826 0.000
vt 0.855 0.788 0.000
vt 0.885 0.804 0.000
vt 0.863 0.833 0.000
vt 0.876 0.749 0.000
vt 0.919 0.699 0.000
vt 0.952 0.737 0.000
vt 0.913 0.779 0.000
vt 0.964 0.678 0.000
vt 0.983 0.705 0.000
vt 0.829 0.884 0.000
vt 0.862 0.887 0.000
vt 0.148 0.088 0.000
vt 0.141 0.131 0.000
vt 0.110 0.098 0.000
vt 0.954 0.773 0.000
vt 0.990 0.763 0.000
vt 0.967 0.813 0.000
vt 0.622 0.656 0.000
vt 0.671 0.693 0.000
vt 0.624 0.766 0.000
vt 0.569 0.733 0.000
vt 0.524 0.580 0.000
vt 0.573 0.618 0.000
vt 0.516 0.697 0.000
vt 0.464 0.659 0.000
vt 0.258 0.504 0.000
vt 0.219 0.469 0.000
vt 0.290 0.391 0.000
vt 0.329 0.423 0.000
vt 0.308 0.543 0.000
vt 0.377 0.463 0.000
vt 0.785 0.468 0.000
vt 0.824 0.512 0.000
vt 0.724 0.624 0.000
vt 0.680 0.584 0.000
vt 0.700 0.382 0.000
vt 0.743 0.425 0.000
vt 0.634 0.543 0.000
vt 0.588 0.502 0.000
vt 0.398 0.342 0.000
vt 0.360 0.312 0.000
vt 0.495 0.187 0.000
vt 0.529 0.216 0.000
vt 0.446 0.381 0.000
vt 0.571 0.255 0.000
vt 0.889 0.387 0.000
vt 0.931 0.443 0.000
vt 0.801 0.287 0.000
vt 0.845 0.336 0.000
vt 0.564 0.050 0.000
vt 0.617 0.092 0.000
vt 0.668 0.142 0.000
vt 0.575 0.905 0.000
vt 0.504 0.872 0.000
vt 0.438 0.835 0.000
vt 0.376 0.796 0.000
vt 0.130 0.624 0.000
vt 0.076 0.573 0.000
vt 0.192 0.672 0.000
vt 0.222 0.313 0.000
vt 0.236 0.336 0.000
vt 0.171 0.409 0.000
vt 0.159 0.376 0.000
vt 0.401 0.150 0.000
vt 0.436 0.155 0.000
vt 0.309 0.274 0.000
vt 0.293 0.262 0.000
vt 0.394 0.021 0.000
vt 0.448 0.010 0.000
vt 0.010 0.454 0.000
vt 0.013 0.392 0.000
vt 0.935 0.804 0.000
vt 0.176 0.036 0.000
vt 0.201 0.092 0.000
vt 0.110 0.054 0.000
vt 0.705 0.801 0.000
vt 0.745 0.740 0.000
vt 0.784 0.678 0.000
vt 0.869 0.579 0.000
vt 0.971 0.539 0.000
vt 0.686 0.926 0.000
vt 0.724 0.729 0.000
vt 0.681 0.794 0.000
vt 0.185 0.432 0.000
vt 0.252 0.355 0.000
vt 0.858 0.558 0.000
vt 0.768 0.665 0.000
vt 0.322 0.283 0.000
vt 0.460 0.164 0.000
vt 0.967 0.508 0.000
vt 0.501 0.017 0.000
vt 0.651 0.929 0.000
vt 0.029 0.511 0.000
vt 0.105 0.191 0.000
vt 0.124 0.164 0.000
vt 0.247 0.059 0.000
vt 0.053 0.226 0.000
# 146 texture coords

o Banana
g Banana
usemtl Banana
s 1
f 1/1/1 2/2/2 3/3/3 4/4/4 
f 5/5/5 6/6/6 7/7/7 8/8/8 
f 9/9/9 10/10/10 6/6/6 5/5/5 
f 4/4/4 3/3/3 10/11/10 9/12/9 
f 11/13/11 12/14/12 13/15/13 14/16/14 
f 15/17/15 16/18/16 17/19/17 18/20/18 
f 16/18/16 19/21/19 20/22/20 17/19/17 
f 19/23/19 11/13/11 14/16/14 20/24/20 
f 21/25/21 22/26/22 23/27/23 24/28/24 
f 25/29/25 26/30/26 27/31/27 28/32/28 
f 29/33/29 30/34/30 26/30/26 25/29/25 
f 24/28/24 23/27/23 30/35/30 29/36/29 
f 31/37/31 32/38/32 33/39/33 34/40/34 
f 35/41/35 36/42/36 37/43/37 38/44/38 
f 39/45/39 40/46/40 36/42/36 35/41/35 
f 34/40/34 33/39/33 40/47/40 39/48/39 
f 41/49/41 42/50/42 43/51/43 44/52/44 
f 45/53/45 46/54/46 47/55/47 48/56/48 
f 46/54/46 49/57/49 50/58/50 47/55/47 
f 49/59/49 41/49/41 44/52/44 50/60/50 
f 8/8/8 7/7/7 2/2/2 1/1/1 
f 12/14/12 15/17/15 18/20/18 13/15/13 
f 28/32/28 27/31/27 22/26/22 21/25/21 
f 38/44/38 37/43/37 32/38/32 31/37/31 
f 42/50/42 45/53/45 48/56/48 43/51/43 
f 51/61/51 52/62/52 53/63/53 
f 54/64/54 50/65/50 44/66/44 
f 55/67/55 56/68/56 57/69/57 58/70/58 
f 59/71/59 60/72/60 61/73/61 62/74/62 
f 63/75/63 64/76/64 65/77/65 66/78/66 
f 24/28/24 67/79/67 68/80/68 21/25/21 
f 69/81/69 70/82/70 71/83/71 72/84/72 
f 73/85/73 74/86/74 75/87/75 76/88/76 
f 77/89/77 78/90/78 79/91/79 80/92/80 
f 28/32/28 81/93/81 82/94/82 25/29/25 
f 83/95/83 84/96/84 70/82/70 69/81/69 
f 85/97/85 86/98/86 74/86/74 73/85/73 
f 80/92/80 79/91/79 87/99/87 88/100/88 
f 25/29/25 82/94/82 89/101/89 29/33/29 
f 58/70/58 57/69/57 84/102/84 83/103/83 
f 62/74/62 61/73/61 86/104/86 85/105/85 
f 88/106/88 87/107/87 64/76/64 63/75/63 
f 29/36/29 89/108/89 67/79/67 24/28/24 
f 72/84/72 71/83/71 56/68/56 55/67/55 
f 76/88/76 75/87/75 60/72/60 59/71/59 
f 66/78/66 65/77/65 78/90/78 77/89/77 
f 21/25/21 68/80/68 81/93/81 28/32/28 
f 90/109/90 91/110/91 92/111/92 93/112/93 
f 94/113/94 95/114/95 96/115/96 97/116/97 
f 98/117/98 99/118/99 95/114/95 94/113/94 
f 93/112/93 92/111/92 99/119/99 98/120/98 
f 97/116/97 96/115/96 91/110/91 90/109/90 
f 48/56/48 47/55/47 54/64/54 
f 54/64/54 43/121/43 48/56/48 
f 54/64/54 44/66/44 43/121/43 
f 54/64/54 47/55/47 50/65/50 
f 100/122/100 101/123/101 51/61/51 
f 51/61/51 101/123/101 52/62/52 
f 51/61/51 102/124/102 100/122/100 
f 53/63/53 102/124/102 51/61/51 
f 32/38/32 42/50/42 41/49/41 33/39/33 
f 34/40/34 103/125/103 104/126/104 31/37/31 
f 36/42/36 46/54/46 45/53/45 37/43/37 
f 38/44/38 105/127/105 106/128/106 35/41/35 
f 40/46/40 49/57/49 46/54/46 36/42/36 
f 35/41/35 106/128/106 107/129/107 39/45/39 
f 33/39/33 41/49/41 49/59/49 40/47/40 
f 39/48/39 107/130/107 103/125/103 34/40/34 
f 37/43/37 45/53/45 42/50/42 32/38/32 
f 31/37/31 104/126/104 105/127/105 38/44/38 
f 13/15/13 90/109/90 93/112/93 14/16/14 
f 17/19/17 94/113/94 97/116/97 18/20/18 
f 20/22/20 98/117/98 94/113/94 17/19/17 
f 14/16/14 93/112/93 98/120/98 20/24/20 
f 22/26/22 59/71/59 62/74/62 23/27/23 
f 26/30/26 73/85/73 76/88/76 27/31/27 
f 30/34/30 85/97/85 73/85/73 26/30/26 
f 23/27/23 62/74/62 85/105/85 30/35/30 
f 18/20/18 97/116/97 90/109/90 13/15/13 
f 27/31/27 76/88/76 59/71/59 22/26/22 
f 56/68/56 108/131/108 109/132/109 57/69/57 
f 60/72/60 55/67/55 58/70/58 61/73/61 
f 64/76/64 110/133/110 111/134/111 65/77/65 
f 67/79/67 63/75/63 66/78/66 68/80/68 
f 70/82/70 112/135/112 113/136/113 71/83/71 
f 74/86/74 69/81/69 72/84/72 75/87/75 
f 78/90/78 114/137/114 115/138/115 79/91/79 
f 81/93/81 77/89/77 80/92/80 82/94/82 
f 84/96/84 116/139/116 112/135/112 70/82/70 
f 86/98/86 83/95/83 69/81/69 74/86/74 
f 79/91/79 115/138/115 117/140/117 87/99/87 
f 82/94/82 80/92/80 88/100/88 89/101/89 
f 57/69/57 109/132/109 116/141/116 84/102/84 
f 61/73/61 58/70/58 83/103/83 86/104/86 
f 87/107/87 117/142/117 110/133/110 64/76/64 
f 89/108/89 88/106/88 63/75/63 67/79/67 
f 71/83/71 113/136/113 108/131/108 56/68/56 
f 75/87/75 72/84/72 55/67/55 60/72/60 
f 65/77/65 111/134/111 114/137/114 78/90/78 
f 68/80/68 66/78/66 77/89/77 81/93/81 
f 2/2/2 12/14/12 11/13/11 3/3/3 
f 4/4/4 102/143/102 53/144/53 1/1/1 
f 6/6/6 16/18/16 15/17/15 7/7/7 
f 8/8/8 52/62/52 101/123/101 5/5/5 
f 10/10/10 19/21/19 16/18/16 6/6/6 
f 5/5/5 101/123/101 100/145/100 9/9/9 
f 3/3/3 11/13/11 19/23/19 10/11/10 
f 9/12/9 100/146/100 102/143/102 4/4/4 
f 7/7/7 15/17/15 12/14/12 2/2/2 
f 1/1/1 53/144/53 52/62/52 8/8/8 
f 91/110/91 111/134/111 110/133/110 92/111/92 
f 95/114/95 115/138/115 114/137/114 96/115/96 
f 99/118/99 117/140/117 115/138/115 95/114/95 
f 92/111/92 110/133/110 117/142/117 99/119/99 
f 96/115/96 114/137/114 111/134/111 91/110/91 
f 103/125/103 109/132/109 108/131/108 104/126/104 
f 105/127/105 113/136/113 112/135/112 106/128/106 
f 106/128/106 112/135/112 116/139/116 107/129/107 
f 107/130/107 116/141/116 109/132/109 103/125/103 
f 104/126/104 108/131/108 113/136/113 105/127/105 
# 110 polygons - 10 triangles

