# 3ds Max Wavefront OBJ Exporter v0.97b - (c)2007 guruware
# 创建的文件:04.01.2020 15:49:33

mtllib small.mtl

#
# object Angle001
#

v  -24.2228 0.0000 -3.8756
v  -24.2429 0.0000 -3.8756
v  -24.2429 0.0240 -3.8756
v  -24.2228 0.0240 -3.8756
v  -24.2429 0.0000 -3.7748
v  -24.2429 0.0240 -3.7748
v  -24.1962 0.0000 -3.7748
v  -24.1962 0.0240 -3.7748
v  -24.1962 0.0000 -3.7949
v  -24.1962 0.0240 -3.7949
v  -24.2228 0.0000 -3.7949
v  -24.2228 0.0240 -3.7949
# 12 vertices

vn 0.5774 -0.5774 -0.5774
vn -0.5774 -0.5774 -0.5774
vn -0.5774 0.5774 -0.5774
vn 0.5774 0.5774 -0.5774
vn -0.5774 -0.5774 0.5774
vn -0.5774 0.5774 0.5774
vn 0.5774 -0.5774 0.5774
vn 0.5774 0.5774 0.5774
vn 0.3015 -0.9045 -0.3015
vn 0.3015 0.9045 -0.3015
# 10 vertex normals

o Angle001
g Angle001
usemtl wire_225087143
s 1
f 1//1 2//2 3//3 4//4 
s 4
f 2//2 5//5 6//6 3//3 
s 2
f 5//5 7//7 8//8 6//6 
s 4
f 7//7 9//1 10//4 8//8 
s 2
f 9//1 11//9 12//10 10//4 
s 4
f 11//9 1//1 4//4 12//10 
s 16
f 7//7 5//5 11//9 9//1 
f 2//2 1//1 11//9 5//5 
f 8//8 10//4 12//10 6//6 
f 3//3 6//6 12//10 4//4 
# 10 polygons

